<svg xmlns="http://www.w3.org/2000/svg" xmlns:xlink="http://www.w3.org/1999/xlink" width="48" zoomAndPan="magnify" viewBox="0 0 36 36.000001" height="48" preserveAspectRatio="xMidYMid meet" version="1.0"><defs><g/><clipPath id="5672deffeb"><path d="M 1.144531 0.65625 L 34.855469 0.65625 L 34.855469 34.371094 L 1.144531 34.371094 Z M 1.144531 0.65625 " clip-rule="nonzero"/></clipPath><clipPath id="d907030da7"><path d="M 18 0.65625 C 8.691406 0.65625 1.144531 8.203125 1.144531 17.511719 C 1.144531 26.824219 8.691406 34.371094 18 34.371094 C 27.308594 34.371094 34.855469 26.824219 34.855469 17.511719 C 34.855469 8.203125 27.308594 0.65625 18 0.65625 Z M 18 0.65625 " clip-rule="nonzero"/></clipPath><clipPath id="c9216c6020"><path d="M 0.144531 0.65625 L 33.855469 0.65625 L 33.855469 34.371094 L 0.144531 34.371094 Z M 0.144531 0.65625 " clip-rule="nonzero"/></clipPath><clipPath id="5694eee5bb"><path d="M 17 0.65625 C 7.691406 0.65625 0.144531 8.203125 0.144531 17.511719 C 0.144531 26.824219 7.691406 34.371094 17 34.371094 C 26.308594 34.371094 33.855469 26.824219 33.855469 17.511719 C 33.855469 8.203125 26.308594 0.65625 17 0.65625 Z M 17 0.65625 " clip-rule="nonzero"/></clipPath><clipPath id="8dda4e18c9"><rect x="0" width="34" y="0" height="35"/></clipPath><clipPath id="ce7b99f742"><rect x="0" width="30" y="0" height="27"/></clipPath></defs><g clip-path="url(#5672deffeb)"><g clip-path="url(#d907030da7)"><g transform="matrix(1, 0, 0, 1, 1, 0.000000000000010603)"><g clip-path="url(#8dda4e18c9)"><g clip-path="url(#c9216c6020)"><g clip-path="url(#5694eee5bb)"><path fill="#8e24aa" d="M 0.144531 0.65625 L 33.855469 0.65625 L 33.855469 34.371094 L 0.144531 34.371094 Z M 0.144531 0.65625 " fill-opacity="1" fill-rule="nonzero"/></g></g></g></g></g></g><g transform="matrix(1, 0, 0, 1, 5, 6)"><g clip-path="url(#ce7b99f742)"><g fill="#ffffff" fill-opacity="1"><g transform="translate(0.824105, 20.152388)"><g><path d="M 8.15625 0 L 0.46875 0 C 0.46875 -0.9375 0.601562 -1.914062 0.875 -2.9375 C 1.15625 -3.957031 1.515625 -4.96875 1.953125 -5.96875 C 2.398438 -6.96875 2.867188 -7.910156 3.359375 -8.796875 C 3.847656 -9.679688 4.3125 -10.453125 4.75 -11.109375 C 5.039062 -11.554688 5.359375 -12.003906 5.703125 -12.453125 C 6.054688 -12.898438 6.394531 -13.332031 6.71875 -13.75 C 6.394531 -14.84375 6.078125 -15.664062 5.765625 -16.21875 C 5.453125 -16.769531 5 -17.046875 4.40625 -17.046875 L 4.40625 -17.71875 C 5.726562 -17.71875 6.882812 -17.546875 7.875 -17.203125 C 8.875 -16.859375 9.726562 -16.398438 10.4375 -15.828125 C 11.15625 -15.253906 11.75 -14.613281 12.21875 -13.90625 C 12.6875 -13.195312 13.039062 -12.476562 13.28125 -11.75 C 13.84375 -10.09375 14.300781 -8.507812 14.65625 -7 C 15.019531 -5.5 15.460938 -4.144531 15.984375 -2.9375 C 16.316406 -2.1875 16.765625 -1.769531 17.328125 -1.6875 C 17.890625 -1.613281 18.378906 -1.796875 18.796875 -2.234375 L 19.234375 -1.765625 C 18.710938 -1.035156 18.070312 -0.523438 17.3125 -0.234375 C 16.5625 0.046875 15.859375 0.1875 15.203125 0.1875 C 14.253906 0.1875 13.394531 -0.046875 12.625 -0.515625 C 11.851562 -0.984375 11.195312 -1.59375 10.65625 -2.34375 C 10.125 -3.101562 9.710938 -3.90625 9.421875 -4.75 L 5.546875 -4.75 C 5.847656 -3.8125 6.226562 -2.925781 6.6875 -2.09375 C 7.144531 -1.269531 7.632812 -0.570312 8.15625 0 Z M 9.21875 -5.375 C 8.832031 -6.5625 8.453125 -7.832031 8.078125 -9.1875 C 7.710938 -10.539062 7.335938 -11.820312 6.953125 -13.03125 C 6.796875 -12.800781 6.640625 -12.582031 6.484375 -12.375 C 6.328125 -12.164062 6.171875 -11.941406 6.015625 -11.703125 C 5.429688 -10.816406 5.113281 -9.816406 5.0625 -8.703125 C 5.007812 -7.585938 5.117188 -6.476562 5.390625 -5.375 Z M 9.21875 -5.375 "/></g></g></g><g fill="#ffffff" fill-opacity="1"><g transform="translate(18.289379, 20.152388)"><g><path d="M 0.59375 0 L 0.59375 -12.203125 C 0.800781 -11.921875 1.125 -11.675781 1.5625 -11.46875 C 2.007812 -11.257812 2.601562 -11.097656 3.34375 -10.984375 C 3.8125 -10.910156 4.269531 -10.832031 4.71875 -10.75 C 5.164062 -10.675781 5.535156 -10.507812 5.828125 -10.25 C 6.128906 -9.988281 6.28125 -9.546875 6.28125 -8.921875 L 6.28125 0 Z M 6.78125 -14.6875 C 6.78125 -13.789062 6.472656 -13.050781 5.859375 -12.46875 C 5.253906 -11.882812 4.453125 -11.59375 3.453125 -11.59375 C 2.453125 -11.59375 1.644531 -11.882812 1.03125 -12.46875 C 0.425781 -13.050781 0.125 -13.789062 0.125 -14.6875 C 0.125 -15.601562 0.425781 -16.347656 1.03125 -16.921875 C 1.644531 -17.503906 2.453125 -17.796875 3.453125 -17.796875 C 4.453125 -17.796875 5.253906 -17.503906 5.859375 -16.921875 C 6.472656 -16.347656 6.78125 -15.601562 6.78125 -14.6875 Z M 6.78125 -14.6875 "/></g></g></g></g></g></svg>