<svg xmlns="http://www.w3.org/2000/svg" xmlns:xlink="http://www.w3.org/1999/xlink" width="1080" zoomAndPan="magnify" viewBox="0 0 810 809.999993" height="1080" preserveAspectRatio="xMidYMid meet" version="1.0"><defs><g/><clipPath id="f241fe6b26"><path d="M 97.671875 347.574219 L 131.792969 347.574219 L 131.792969 381.695312 L 97.671875 381.695312 Z M 97.671875 347.574219 " clip-rule="nonzero"/></clipPath><clipPath id="25f66aa316"><path d="M 114.730469 347.574219 C 105.308594 347.574219 97.671875 355.210938 97.671875 364.632812 C 97.671875 374.054688 105.308594 381.695312 114.730469 381.695312 C 124.152344 381.695312 131.792969 374.054688 131.792969 364.632812 C 131.792969 355.210938 124.152344 347.574219 114.730469 347.574219 Z M 114.730469 347.574219 " clip-rule="nonzero"/></clipPath><clipPath id="48623f428b"><path d="M 0.671875 0.574219 L 34.792969 0.574219 L 34.792969 34.695312 L 0.671875 34.695312 Z M 0.671875 0.574219 " clip-rule="nonzero"/></clipPath><clipPath id="51fb979c6e"><path d="M 17.730469 0.574219 C 8.308594 0.574219 0.671875 8.210938 0.671875 17.632812 C 0.671875 27.054688 8.308594 34.695312 17.730469 34.695312 C 27.152344 34.695312 34.792969 27.054688 34.792969 17.632812 C 34.792969 8.210938 27.152344 0.574219 17.730469 0.574219 Z M 17.730469 0.574219 " clip-rule="nonzero"/></clipPath><clipPath id="adf400ee35"><rect x="0" width="35" y="0" height="35"/></clipPath><clipPath id="de14304313"><rect x="0" width="190" y="0" height="182"/></clipPath></defs><g clip-path="url(#f241fe6b26)"><g clip-path="url(#25f66aa316)"><g transform="matrix(1, 0, 0, 1, 97, 347)"><g clip-path="url(#adf400ee35)"><g clip-path="url(#48623f428b)"><g clip-path="url(#51fb979c6e)"><path fill="#8e24aa" d="M 0.671875 0.574219 L 34.792969 0.574219 L 34.792969 34.695312 L 0.671875 34.695312 Z M 0.671875 0.574219 " fill-opacity="1" fill-rule="nonzero"/></g></g></g></g></g></g><g fill="#000000" fill-opacity="1"><g transform="translate(96.580376, 444.182722)"><g><path d="M 2.453125 -57.5625 L 5.109375 -57.5625 C 5.109375 -54.863281 5.585938 -52.894531 6.546875 -51.65625 C 7.503906 -50.414062 8.757812 -49.6875 10.3125 -49.46875 C 11.875 -49.257812 13.648438 -49.332031 15.640625 -49.6875 C 17.410156 -50.039062 18.96875 -50.660156 20.3125 -51.546875 C 21.664062 -52.429688 23 -53.40625 24.3125 -54.46875 C 25.625 -55.53125 27.078125 -56.429688 28.671875 -57.171875 C 30.265625 -57.921875 32.160156 -58.296875 34.359375 -58.296875 C 37.484375 -58.296875 39.914062 -57.90625 41.65625 -57.125 C 43.394531 -56.351562 44.738281 -55.46875 45.6875 -54.46875 C 46.644531 -53.476562 47.550781 -52.59375 48.40625 -51.8125 C 49.257812 -51.03125 50.320312 -50.640625 51.59375 -50.640625 C 53.375 -50.640625 54.597656 -51.296875 55.265625 -52.609375 C 55.941406 -53.921875 56.28125 -55.570312 56.28125 -57.5625 L 59.046875 -57.5625 C 59.398438 -51.675781 59.113281 -47.046875 58.1875 -43.671875 C 57.269531 -40.304688 55.78125 -37.910156 53.71875 -36.484375 C 51.664062 -35.066406 49.113281 -34.359375 46.0625 -34.359375 C 43.300781 -34.359375 41.140625 -34.960938 39.578125 -36.171875 C 38.015625 -37.378906 36.828125 -38.867188 36.015625 -40.640625 C 35.203125 -42.410156 34.546875 -44.203125 34.046875 -46.015625 C 33.546875 -47.828125 32.957031 -49.382812 32.28125 -50.6875 C 31.613281 -52 30.601562 -52.765625 29.25 -52.984375 C 27.90625 -53.191406 26.945312 -52.691406 26.375 -51.484375 C 25.8125 -50.285156 25.53125 -48.726562 25.53125 -46.8125 L 25.75 0 L 2.453125 0 Z M 2.453125 -57.5625 "/></g></g></g><g fill="#000000" fill-opacity="1"><g transform="translate(158.5021, 444.182722)"><g><path d="M 24.25 -25.953125 C 24.46875 -25.597656 24.679688 -25.222656 24.890625 -24.828125 C 25.109375 -24.441406 25.359375 -24.070312 25.640625 -23.71875 C 31.804688 -14.007812 38.132812 -8.78125 44.625 -8.03125 C 51.113281 -7.289062 57.410156 -10.285156 63.515625 -17.015625 C 63.867188 -16.734375 64.222656 -16.414062 64.578125 -16.0625 C 64.929688 -15.707031 65.25 -15.351562 65.53125 -15 C 62.550781 -11.59375 59.644531 -8.71875 56.8125 -6.375 C 53.976562 -4.039062 50.75 -2.269531 47.125 -1.0625 C 43.507812 0.144531 39.007812 0.75 33.625 0.75 C 27.238281 0.75 21.664062 -0.507812 16.90625 -3.03125 C 12.15625 -5.550781 8.453125 -9.023438 5.796875 -13.453125 C 3.140625 -17.890625 1.8125 -23.015625 1.8125 -28.828125 C 1.8125 -34.648438 3.140625 -39.757812 5.796875 -44.15625 C 8.453125 -48.550781 12.15625 -52.003906 16.90625 -54.515625 C 21.664062 -57.035156 27.238281 -58.296875 33.625 -58.296875 C 39.226562 -58.296875 43.710938 -57.5 47.078125 -55.90625 C 50.441406 -54.3125 52.566406 -52.21875 53.453125 -49.625 C 54.347656 -47.039062 53.925781 -44.273438 52.1875 -41.328125 C 50.445312 -38.390625 47.269531 -35.550781 42.65625 -32.8125 C 38.050781 -30.082031 31.914062 -27.796875 24.25 -25.953125 Z M 33.296875 -46.171875 C 31.097656 -49.785156 28.578125 -52.109375 25.734375 -53.140625 C 22.898438 -54.171875 20.457031 -54.046875 18.40625 -52.765625 C 15.707031 -50.992188 14.90625 -47.960938 16 -43.671875 C 17.101562 -39.378906 19.394531 -34.21875 22.875 -28.1875 C 25.851562 -28.832031 28.476562 -30.003906 30.75 -31.703125 C 33.019531 -33.398438 34.472656 -35.488281 35.109375 -37.96875 C 35.742188 -40.457031 35.140625 -43.191406 33.296875 -46.171875 Z M 33.296875 -46.171875 "/></g></g></g><g fill="#000000" fill-opacity="1"><g transform="translate(219.891867, 444.182722)"><g><path d="M 24.25 -43.515625 C 29.644531 -42.171875 34.328125 -40.484375 38.296875 -38.453125 C 42.273438 -36.429688 45.304688 -33.894531 47.390625 -30.84375 C 49.484375 -27.800781 50.460938 -24.007812 50.328125 -19.46875 C 50.253906 -16.0625 49.597656 -12.816406 48.359375 -9.734375 C 47.117188 -6.648438 45.148438 -4.128906 42.453125 -2.171875 C 39.753906 -0.222656 36.171875 0.75 31.703125 0.75 C 29.296875 0.75 27.238281 0.394531 25.53125 -0.3125 C 23.832031 -1.03125 22.289062 -1.832031 20.90625 -2.71875 C 19.519531 -3.601562 18.132812 -4.398438 16.75 -5.109375 C 15.375 -5.816406 13.765625 -6.171875 11.921875 -6.171875 C 7.515625 -6.171875 5.3125 -4.113281 5.3125 0 L 2.65625 0 C 2.65625 -1.28125 2.742188 -3.019531 2.921875 -5.21875 C 3.097656 -7.414062 3.539062 -9.644531 4.25 -11.90625 C 4.957031 -14.175781 6.09375 -16.070312 7.65625 -17.59375 C 9.21875 -19.125 11.414062 -19.890625 14.25 -19.890625 C 17.019531 -19.890625 19.289062 -19.285156 21.0625 -18.078125 C 22.832031 -16.878906 24.320312 -15.375 25.53125 -13.5625 C 26.738281 -11.757812 27.800781 -9.96875 28.71875 -8.1875 C 29.644531 -6.414062 30.617188 -4.960938 31.640625 -3.828125 C 32.671875 -2.691406 33.929688 -2.195312 35.421875 -2.34375 C 36.773438 -2.476562 37.910156 -3.128906 38.828125 -4.296875 C 39.753906 -5.472656 40.003906 -6.984375 39.578125 -8.828125 C 39.296875 -10.179688 38.601562 -11.546875 37.5 -12.921875 C 36.40625 -14.304688 34.703125 -15.601562 32.390625 -16.8125 C 30.085938 -18.019531 26.953125 -18.976562 22.984375 -19.6875 C 19.648438 -20.320312 16.40625 -21.507812 13.25 -23.25 C 10.09375 -24.988281 7.46875 -27.273438 5.375 -30.109375 C 3.28125 -32.941406 2.160156 -36.378906 2.015625 -40.421875 C 1.953125 -43.472656 2.628906 -46.363281 4.046875 -49.09375 C 5.460938 -51.832031 7.375 -54.050781 9.78125 -55.75 C 12.195312 -57.445312 14.820312 -58.296875 17.65625 -58.296875 C 20.070312 -58.296875 22.179688 -58.007812 23.984375 -57.4375 C 25.796875 -56.875 27.460938 -56.238281 28.984375 -55.53125 C 30.515625 -54.820312 32.039062 -54.179688 33.5625 -53.609375 C 35.09375 -53.046875 36.78125 -52.765625 38.625 -52.765625 C 40.675781 -52.765625 42.445312 -53.171875 43.9375 -53.984375 C 45.425781 -54.804688 46.171875 -56 46.171875 -57.5625 L 48.9375 -57.5625 C 48.9375 -56.28125 48.773438 -54.695312 48.453125 -52.8125 C 48.140625 -50.9375 47.570312 -49.09375 46.75 -47.28125 C 45.9375 -45.476562 44.800781 -43.957031 43.34375 -42.71875 C 41.894531 -41.476562 40.035156 -40.859375 37.765625 -40.859375 C 36.066406 -40.859375 34.523438 -41.351562 33.140625 -42.34375 C 31.753906 -43.332031 30.441406 -44.570312 29.203125 -46.0625 C 27.960938 -47.550781 26.738281 -49.019531 25.53125 -50.46875 C 24.320312 -51.925781 23.078125 -53.148438 21.796875 -54.140625 C 20.523438 -55.140625 19.144531 -55.640625 17.65625 -55.640625 C 16.09375 -55.640625 14.847656 -55.195312 13.921875 -54.3125 C 13.003906 -53.425781 12.648438 -52.328125 12.859375 -51.015625 C 13.078125 -49.703125 14.070312 -48.367188 15.84375 -47.015625 C 17.625 -45.671875 20.425781 -44.503906 24.25 -43.515625 Z M 24.25 -43.515625 "/></g></g></g><g fill="#000000" fill-opacity="1"><g transform="translate(277.451434, 444.182722)"><g><path d="M 61.921875 0 L 59.265625 0 C 59.265625 -2.695312 58.800781 -4.664062 57.875 -5.90625 C 56.957031 -7.144531 55.785156 -7.90625 54.359375 -8.1875 C 51.597656 -8.757812 49.132812 -8.65625 46.96875 -7.875 C 44.8125 -7.09375 42.753906 -6.046875 40.796875 -4.734375 C 38.847656 -3.421875 36.804688 -2.234375 34.671875 -1.171875 C 32.546875 -0.109375 30.175781 0.421875 27.5625 0.421875 C 21.457031 0.421875 16.363281 -0.832031 12.28125 -3.34375 C 8.207031 -5.863281 5.316406 -9.304688 3.609375 -13.671875 C 1.910156 -18.035156 1.488281 -22.984375 2.34375 -28.515625 C 3.050781 -32.765625 3.367188 -36.394531 3.296875 -39.40625 C 3.222656 -42.425781 2.160156 -44.820312 0.109375 -46.59375 C -1.242188 -47.800781 -2.769531 -48.226562 -4.46875 -47.875 C -6.164062 -47.519531 -7.867188 -46.523438 -9.578125 -44.890625 L -11.171875 -46.59375 C -9.398438 -48.9375 -7.039062 -51.097656 -4.09375 -53.078125 C -1.15625 -55.066406 2.015625 -56.539062 5.421875 -57.5 C 8.828125 -58.457031 12.125 -58.632812 15.3125 -58.03125 C 18.507812 -57.425781 21.207031 -55.707031 23.40625 -52.875 C 25.101562 -50.75 26.203125 -48.335938 26.703125 -45.640625 C 27.203125 -42.941406 27.34375 -40.085938 27.125 -37.078125 C 26.914062 -34.066406 26.5625 -31 26.0625 -27.875 C 25.207031 -22.414062 24.867188 -18.035156 25.046875 -14.734375 C 25.234375 -11.429688 25.785156 -9 26.703125 -7.4375 C 27.628906 -5.882812 28.78125 -4.945312 30.15625 -4.625 C 31.539062 -4.3125 33.015625 -4.398438 34.578125 -4.890625 C 35.992188 -5.390625 37.003906 -6.257812 37.609375 -7.5 C 38.210938 -8.738281 38.550781 -10.242188 38.625 -12.015625 L 38.625 -57.5625 L 61.921875 -57.5625 Z M 61.921875 0 "/></g></g></g><g fill="#000000" fill-opacity="1"><g transform="translate(348.629505, 444.182722)"><g><path d="M 2.453125 -57.5625 L 5.109375 -57.5625 C 5.109375 -54.863281 5.566406 -52.910156 6.484375 -51.703125 C 7.410156 -50.492188 8.671875 -49.785156 10.265625 -49.578125 C 11.859375 -49.367188 13.613281 -49.367188 15.53125 -49.578125 C 17.375 -50.003906 19.078125 -50.675781 20.640625 -51.59375 C 22.203125 -52.519531 23.757812 -53.492188 25.3125 -54.515625 C 26.875 -55.546875 28.523438 -56.429688 30.265625 -57.171875 C 32.003906 -57.921875 33.972656 -58.296875 36.171875 -58.296875 C 40.285156 -58.296875 43.867188 -57.691406 46.921875 -56.484375 C 49.972656 -55.285156 52.488281 -53.625 54.46875 -51.5 C 56.175781 -52.34375 57.828125 -53.296875 59.421875 -54.359375 C 61.015625 -55.429688 62.710938 -56.351562 64.515625 -57.125 C 66.328125 -57.90625 68.332031 -58.296875 70.53125 -58.296875 C 76.707031 -58.296875 81.675781 -57.035156 85.4375 -54.515625 C 89.195312 -52.003906 91.785156 -48.582031 93.203125 -44.25 C 94.617188 -39.925781 94.863281 -35 93.9375 -29.46875 C 93.300781 -25.21875 93 -21.601562 93.03125 -18.625 C 93.070312 -15.644531 94.117188 -13.234375 96.171875 -11.390625 C 97.597656 -10.179688 99.144531 -9.734375 100.8125 -10.046875 C 102.476562 -10.367188 104.160156 -11.382812 105.859375 -13.09375 L 107.453125 -11.390625 C 105.679688 -9.046875 103.320312 -6.878906 100.375 -4.890625 C 97.4375 -2.910156 94.28125 -1.441406 90.90625 -0.484375 C 87.539062 0.472656 84.257812 0.648438 81.0625 0.046875 C 77.875 -0.546875 75.144531 -2.265625 72.875 -5.109375 C 71.175781 -7.304688 70.078125 -9.734375 69.578125 -12.390625 C 69.078125 -15.054688 68.953125 -17.894531 69.203125 -20.90625 C 69.453125 -23.914062 69.789062 -26.984375 70.21875 -30.109375 C 71.070312 -35.566406 71.460938 -39.925781 71.390625 -43.1875 C 71.316406 -46.457031 70.941406 -48.867188 70.265625 -50.421875 C 69.597656 -51.984375 68.726562 -52.90625 67.65625 -53.1875 C 66.59375 -53.476562 65.460938 -53.410156 64.265625 -52.984375 C 61.992188 -52.128906 60.535156 -50.742188 59.890625 -48.828125 C 59.253906 -46.910156 59.046875 -44.75 59.265625 -42.34375 C 60.253906 -38.507812 60.359375 -34.21875 59.578125 -29.46875 C 59.078125 -26.132812 58.722656 -22.957031 58.515625 -19.9375 C 58.304688 -16.925781 58.378906 -14.375 58.734375 -12.28125 C 59.085938 -10.195312 59.863281 -8.796875 61.0625 -8.078125 C 62.269531 -7.367188 64.007812 -7.691406 66.28125 -9.046875 L 67.453125 -6.921875 C 65.460938 -5.140625 63.226562 -3.59375 60.75 -2.28125 C 58.269531 -0.96875 55.695312 -0.0820312 53.03125 0.375 C 50.375 0.832031 47.785156 0.671875 45.265625 -0.109375 C 42.753906 -0.890625 40.503906 -2.554688 38.515625 -5.109375 C 36.804688 -7.304688 35.703125 -9.734375 35.203125 -12.390625 C 34.710938 -15.054688 34.570312 -17.894531 34.78125 -20.90625 C 35 -23.914062 35.320312 -26.984375 35.75 -30.109375 C 36.601562 -35.566406 36.992188 -39.925781 36.921875 -43.1875 C 36.847656 -46.457031 36.472656 -48.867188 35.796875 -50.421875 C 35.128906 -51.984375 34.257812 -52.90625 33.1875 -53.1875 C 32.125 -53.476562 30.992188 -53.410156 29.796875 -52.984375 C 28.160156 -52.347656 27.09375 -51.109375 26.59375 -49.265625 C 26.101562 -47.421875 25.820312 -45.1875 25.75 -42.5625 L 25.75 0 L 2.453125 0 Z M 2.453125 -57.5625 "/></g></g></g><g fill="#000000" fill-opacity="1"><g transform="translate(452.683463, 444.182722)"><g><path d="M 24.25 -25.953125 C 24.46875 -25.597656 24.679688 -25.222656 24.890625 -24.828125 C 25.109375 -24.441406 25.359375 -24.070312 25.640625 -23.71875 C 31.804688 -14.007812 38.132812 -8.78125 44.625 -8.03125 C 51.113281 -7.289062 57.410156 -10.285156 63.515625 -17.015625 C 63.867188 -16.734375 64.222656 -16.414062 64.578125 -16.0625 C 64.929688 -15.707031 65.25 -15.351562 65.53125 -15 C 62.550781 -11.59375 59.644531 -8.71875 56.8125 -6.375 C 53.976562 -4.039062 50.75 -2.269531 47.125 -1.0625 C 43.507812 0.144531 39.007812 0.75 33.625 0.75 C 27.238281 0.75 21.664062 -0.507812 16.90625 -3.03125 C 12.15625 -5.550781 8.453125 -9.023438 5.796875 -13.453125 C 3.140625 -17.890625 1.8125 -23.015625 1.8125 -28.828125 C 1.8125 -34.648438 3.140625 -39.757812 5.796875 -44.15625 C 8.453125 -48.550781 12.15625 -52.003906 16.90625 -54.515625 C 21.664062 -57.035156 27.238281 -58.296875 33.625 -58.296875 C 39.226562 -58.296875 43.710938 -57.5 47.078125 -55.90625 C 50.441406 -54.3125 52.566406 -52.21875 53.453125 -49.625 C 54.347656 -47.039062 53.925781 -44.273438 52.1875 -41.328125 C 50.445312 -38.390625 47.269531 -35.550781 42.65625 -32.8125 C 38.050781 -30.082031 31.914062 -27.796875 24.25 -25.953125 Z M 33.296875 -46.171875 C 31.097656 -49.785156 28.578125 -52.109375 25.734375 -53.140625 C 22.898438 -54.171875 20.457031 -54.046875 18.40625 -52.765625 C 15.707031 -50.992188 14.90625 -47.960938 16 -43.671875 C 17.101562 -39.378906 19.394531 -34.21875 22.875 -28.1875 C 25.851562 -28.832031 28.476562 -30.003906 30.75 -31.703125 C 33.019531 -33.398438 34.472656 -35.488281 35.109375 -37.96875 C 35.742188 -40.457031 35.140625 -43.191406 33.296875 -46.171875 Z M 33.296875 -46.171875 "/></g></g></g><g fill="#000000" fill-opacity="1"><g transform="translate(514.084265, 444.182722)"><g/></g></g><g transform="matrix(1, 0, 0, 1, 525, 312)"><g clip-path="url(#de14304313)"><g fill="#8e24aa" fill-opacity="1"><g transform="translate(0.208219, 135.157537)"><g><path d="M 57.0625 0 L 3.265625 0 C 3.265625 -6.539062 4.234375 -13.382812 6.171875 -20.53125 C 8.117188 -27.675781 10.632812 -34.757812 13.71875 -41.78125 C 16.8125 -48.8125 20.082031 -55.414062 23.53125 -61.59375 C 26.988281 -67.78125 30.226562 -73.175781 33.25 -77.78125 C 35.3125 -80.925781 37.550781 -84.070312 39.96875 -87.21875 C 42.394531 -90.375 44.757812 -93.40625 47.0625 -96.3125 C 44.757812 -103.945312 42.519531 -109.703125 40.34375 -113.578125 C 38.164062 -117.453125 35.015625 -119.390625 30.890625 -119.390625 L 30.890625 -124.109375 C 40.097656 -124.109375 48.179688 -122.894531 55.140625 -120.46875 C 62.109375 -118.050781 68.109375 -114.84375 73.140625 -110.84375 C 78.171875 -106.851562 82.320312 -102.375 85.59375 -97.40625 C 88.863281 -92.4375 91.347656 -87.40625 93.046875 -82.3125 C 96.921875 -70.6875 100.128906 -59.601562 102.671875 -49.0625 C 105.210938 -38.519531 108.300781 -29.007812 111.9375 -20.53125 C 114.238281 -15.320312 117.359375 -12.441406 121.296875 -11.890625 C 125.234375 -11.347656 128.65625 -12.59375 131.5625 -15.625 L 134.65625 -12.359375 C 131.019531 -7.265625 126.566406 -3.71875 121.296875 -1.71875 C 116.023438 0.269531 111.085938 1.265625 106.484375 1.265625 C 99.828125 1.265625 93.800781 -0.367188 88.40625 -3.640625 C 83.007812 -6.910156 78.429688 -11.175781 74.671875 -16.4375 C 70.921875 -21.707031 68.019531 -27.3125 65.96875 -33.25 L 38.890625 -33.25 C 40.953125 -26.707031 43.585938 -20.53125 46.796875 -14.71875 C 50.003906 -8.90625 53.425781 -4 57.0625 0 Z M 64.515625 -37.609375 C 61.847656 -45.972656 59.210938 -54.878906 56.609375 -64.328125 C 54.003906 -73.773438 51.367188 -82.738281 48.703125 -91.21875 C 47.609375 -89.644531 46.515625 -88.128906 45.421875 -86.671875 C 44.335938 -85.222656 43.25 -83.648438 42.15625 -81.953125 C 38.039062 -75.773438 35.800781 -68.78125 35.4375 -60.96875 C 35.070312 -53.15625 35.859375 -45.367188 37.796875 -37.609375 Z M 64.515625 -37.609375 "/></g></g></g><g fill="#8e24aa" fill-opacity="1"><g transform="translate(131.584122, 135.157537)"><g><path d="M 43.96875 0 L 4.171875 0 L 4.171875 -123.203125 L 43.96875 -123.203125 Z M 43.96875 0 "/></g></g></g></g></g></svg>